<svg xmlns="http://www.w3.org/2000/svg" width="64" height="64" viewBox="0 0 64 64">
  <rect x="1.6" y="1.6" width="60.8" height="60.8" rx="12.0" fill="#4b3a16"/><rect x="2.4" y="2.4" width="59.2" height="59.2" rx="11.4" fill="#d6b76e"/><rect x="2.4" y="3.5" width="59.2" height="58.1" rx="11.4" fill="#c9a24a"/><rect x="5.2" y="5.2" width="53.6" height="53.6" rx="8.8" fill="#141118"/><rect x="8.4" y="8.4" width="47.2" height="47.2" rx="6.4" fill="none" stroke="#6b5730" stroke-width="1.2" stroke-linejoin="round"/><circle cx="32.0" cy="32.0" r="19.5" fill="#253045"/><circle cx="32.0" cy="32.0" r="18.0" fill="none" stroke="#405374" stroke-width="1.1" stroke-linejoin="round"/><circle cx="17.3" cy="21.7" r="1.4" fill="#405374"/><circle cx="46.7" cy="21.7" r="1.4" fill="#405374"/><circle cx="46.7" cy="42.3" r="1.4" fill="#405374"/><circle cx="17.3" cy="42.3" r="1.4" fill="#405374"/><path d="M26.7 17.4 L25.7 14.6" fill="none" stroke="#405374" stroke-width="1.0" stroke-linecap="round" stroke-linejoin="round"/><path d="M37.3 17.4 L38.3 14.6" fill="none" stroke="#405374" stroke-width="1.0" stroke-linecap="round" stroke-linejoin="round"/><path d="M37.3 46.6 L38.3 49.4" fill="none" stroke="#405374" stroke-width="1.0" stroke-linecap="round" stroke-linejoin="round"/><path d="M26.7 46.6 L25.7 49.4" fill="none" stroke="#405374" stroke-width="1.0" stroke-linecap="round" stroke-linejoin="round"/><g transform="translate(32 32) scale(0.80) translate(-32 -32)"><polygon points="24.0,12.0 40.0,12.0 44.0,50.0 20.0,50.0" fill="#f2dfa6"/><polygon points="28.5,14.0 35.5,14.0 37.5,46.0 26.5,46.0" fill="#f8edce"/><rect x="16.0" y="8.0" width="32.0" height="6.0" rx="3.0" fill="#8b8165" stroke="#a59d87" stroke-width="1.0" stroke-linejoin="round"/><polygon points="32.0,9.5 33.3,14.2 38.2,14.0 34.1,16.7 35.8,21.3 32.0,18.2 28.2,21.3 29.9,16.7 25.8,14.0 30.7,14.2" fill="#eef2fb"/></g>
</svg>
