<svg xmlns="http://www.w3.org/2000/svg" width="64" height="64" viewBox="0 0 64 64">
  <rect x="1.6" y="1.6" width="60.8" height="60.8" rx="12.0" fill="#4b3a16"/><rect x="2.4" y="2.4" width="59.2" height="59.2" rx="11.4" fill="#d6b76e"/><rect x="2.4" y="3.5" width="59.2" height="58.1" rx="11.4" fill="#c9a24a"/><rect x="5.2" y="5.2" width="53.6" height="53.6" rx="8.8" fill="#141118"/><rect x="8.4" y="8.4" width="47.2" height="47.2" rx="6.4" fill="none" stroke="#6b5730" stroke-width="1.2" stroke-linejoin="round"/><circle cx="32.0" cy="32.0" r="19.5" fill="#27151a"/><circle cx="32.0" cy="32.0" r="18.0" fill="none" stroke="#693031" stroke-width="1.1" stroke-linejoin="round"/><circle cx="17.3" cy="21.7" r="1.4" fill="#693031"/><circle cx="46.7" cy="21.7" r="1.4" fill="#693031"/><circle cx="46.7" cy="42.3" r="1.4" fill="#693031"/><circle cx="17.3" cy="42.3" r="1.4" fill="#693031"/><path d="M26.7 17.4 L25.7 14.6" fill="none" stroke="#693031" stroke-width="1.0" stroke-linecap="round" stroke-linejoin="round"/><path d="M37.3 17.4 L38.3 14.6" fill="none" stroke="#693031" stroke-width="1.0" stroke-linecap="round" stroke-linejoin="round"/><path d="M37.3 46.6 L38.3 49.4" fill="none" stroke="#693031" stroke-width="1.0" stroke-linecap="round" stroke-linejoin="round"/><path d="M26.7 46.6 L25.7 49.4" fill="none" stroke="#693031" stroke-width="1.0" stroke-linecap="round" stroke-linejoin="round"/><g transform="translate(32 32) scale(0.84) translate(-32 -32)"><g transform="translate(32.0 32.0) rotate(-20.0)"><polygon points="0.0,-17.0 14.0,12.0 0.0,17.0 -14.0,12.0" fill="#813e2b" stroke="#9d685a" stroke-width="1.0" stroke-linejoin="round"/><polygon points="0.0,-14.0 9.0,10.0 0.0,14.0 -9.0,10.0" fill="#e0643c"/><polygon points="0.0,-9.0 4.5,8.0 0.0,10.0 -4.5,8.0" fill="#eeaa94"/></g><path d="M26.1 27.8 A6.3 6.3 0 0 1 37.9 27.8 L35.6 28.7 A3.8 3.8 0 0 0 28.4 28.7z" fill="#e0643c" stroke="#0d0f16" stroke-width="1.2" stroke-linejoin="round"/><polygon points="28.6,31.2 30.3,37.0 31.6,31.2" fill="#eeaa94"/><polygon points="32.4,31.2 33.7,37.0 35.4,31.2" fill="#eeaa94"/></g>
</svg>
