<svg xmlns="http://www.w3.org/2000/svg" width="64" height="64" viewBox="0 0 64 64">
  <rect x="1.6" y="1.6" width="60.8" height="60.8" rx="12.0" fill="#4b3a16"/><rect x="2.4" y="2.4" width="59.2" height="59.2" rx="11.4" fill="#d6b76e"/><rect x="2.4" y="3.5" width="59.2" height="58.1" rx="11.4" fill="#c9a24a"/><rect x="5.2" y="5.2" width="53.6" height="53.6" rx="8.8" fill="#141118"/><rect x="8.4" y="8.4" width="47.2" height="47.2" rx="6.4" fill="none" stroke="#6b5730" stroke-width="1.2" stroke-linejoin="round"/><circle cx="32.0" cy="32.0" r="19.5" fill="#27151a"/><circle cx="32.0" cy="32.0" r="18.0" fill="none" stroke="#693031" stroke-width="1.1" stroke-linejoin="round"/><circle cx="17.3" cy="21.7" r="1.4" fill="#693031"/><circle cx="46.7" cy="21.7" r="1.4" fill="#693031"/><circle cx="46.7" cy="42.3" r="1.4" fill="#693031"/><circle cx="17.3" cy="42.3" r="1.4" fill="#693031"/><path d="M26.7 17.4 L25.7 14.6" fill="none" stroke="#693031" stroke-width="1.0" stroke-linecap="round" stroke-linejoin="round"/><path d="M37.3 17.4 L38.3 14.6" fill="none" stroke="#693031" stroke-width="1.0" stroke-linecap="round" stroke-linejoin="round"/><path d="M37.3 46.6 L38.3 49.4" fill="none" stroke="#693031" stroke-width="1.0" stroke-linecap="round" stroke-linejoin="round"/><path d="M26.7 46.6 L25.7 49.4" fill="none" stroke="#693031" stroke-width="1.0" stroke-linecap="round" stroke-linejoin="round"/><g transform="translate(32 32) scale(0.84) translate(-32 -32)"><polygon points="32.0,10.0 35.9,17.5 43.0,12.9 42.6,21.4 51.1,21.0 46.5,28.1 54.0,32.0 46.5,35.9 51.1,43.0 42.6,42.6 43.0,51.1 35.9,46.5 32.0,54.0 28.1,46.5 21.0,51.1 21.4,42.6 12.9,43.0 17.5,35.9 10.0,32.0 17.5,28.1 12.9,21.0 21.4,21.4 21.0,12.9 28.1,17.5" fill="#e0643c" stroke="#e78667" stroke-width="1.0" stroke-linejoin="round"/><circle cx="32.0" cy="32.0" r="14.0" fill="#37201e"/><path d="M32.0 19.3 C38.6 19.3 42.9 24.4 42.9 31.0 C42.9 34.5 41.0 36.5 39.4 38.0 L39.4 41.1 C39.4 42.7 38.2 43.1 37.1 43.1 L26.9 43.1 C25.8 43.1 24.6 42.7 24.6 41.1 L24.6 38.0 C23.0 36.5 21.1 34.5 21.1 31.0 C21.1 24.4 25.4 19.3 32.0 19.3z" fill="#e0643c" stroke="#e78667" stroke-width="1.0" stroke-linejoin="round"/><circle cx="27.8" cy="29.4" r="3.1" fill="#41241f" stroke="#6b5450" stroke-width="1.0" stroke-linejoin="round"/><circle cx="36.2" cy="29.4" r="3.1" fill="#41241f" stroke="#6b5450" stroke-width="1.0" stroke-linejoin="round"/><polygon points="32.0,33.0 34.0,36.5 30.0,36.5" fill="#41241f" stroke="#6b5450" stroke-width="1.0" stroke-linejoin="round"/></g>
</svg>
