<svg xmlns="http://www.w3.org/2000/svg" width="64" height="64" viewBox="0 0 64 64">
  <rect x="1.6" y="1.6" width="60.8" height="60.8" rx="12.0" fill="#4b3a16"/><rect x="2.4" y="2.4" width="59.2" height="59.2" rx="11.4" fill="#d6b76e"/><rect x="2.4" y="3.5" width="59.2" height="58.1" rx="11.4" fill="#c9a24a"/><rect x="5.2" y="5.2" width="53.6" height="53.6" rx="8.8" fill="#141118"/><rect x="8.4" y="8.4" width="47.2" height="47.2" rx="6.4" fill="none" stroke="#6b5730" stroke-width="1.2" stroke-linejoin="round"/><circle cx="32.0" cy="32.0" r="19.5" fill="#42211c"/><circle cx="32.0" cy="32.0" r="18.0" fill="none" stroke="#763929" stroke-width="1.1" stroke-linejoin="round"/><circle cx="17.3" cy="21.7" r="1.4" fill="#763929"/><circle cx="46.7" cy="21.7" r="1.4" fill="#763929"/><circle cx="46.7" cy="42.3" r="1.4" fill="#763929"/><circle cx="17.3" cy="42.3" r="1.4" fill="#763929"/><path d="M26.7 17.4 L25.7 14.6" fill="none" stroke="#763929" stroke-width="1.0" stroke-linecap="round" stroke-linejoin="round"/><path d="M37.3 17.4 L38.3 14.6" fill="none" stroke="#763929" stroke-width="1.0" stroke-linecap="round" stroke-linejoin="round"/><path d="M37.3 46.6 L38.3 49.4" fill="none" stroke="#763929" stroke-width="1.0" stroke-linecap="round" stroke-linejoin="round"/><path d="M26.7 46.6 L25.7 49.4" fill="none" stroke="#763929" stroke-width="1.0" stroke-linecap="round" stroke-linejoin="round"/><g transform="translate(32 32) scale(0.80) translate(-32 -32)"><circle cx="32.0" cy="32.0" r="11.0" fill="none" stroke="#f2dfa6" stroke-width="3.4" stroke-linejoin="round"/><path d="M46.5 32.0 L51.0 32.0" fill="none" stroke="#f8edce" stroke-width="2.4" stroke-linecap="round" stroke-linejoin="round"/><path d="M42.3 42.3 L45.4 45.4" fill="none" stroke="#f8edce" stroke-width="2.4" stroke-linecap="round" stroke-linejoin="round"/><path d="M32.0 46.5 L32.0 51.0" fill="none" stroke="#f8edce" stroke-width="2.4" stroke-linecap="round" stroke-linejoin="round"/><path d="M21.7 42.3 L18.6 45.4" fill="none" stroke="#f8edce" stroke-width="2.4" stroke-linecap="round" stroke-linejoin="round"/><path d="M17.5 32.0 L13.0 32.0" fill="none" stroke="#f8edce" stroke-width="2.4" stroke-linecap="round" stroke-linejoin="round"/><path d="M21.7 21.7 L18.6 18.6" fill="none" stroke="#f8edce" stroke-width="2.4" stroke-linecap="round" stroke-linejoin="round"/><path d="M32.0 17.5 L32.0 13.0" fill="none" stroke="#f8edce" stroke-width="2.4" stroke-linecap="round" stroke-linejoin="round"/><path d="M42.3 21.7 L45.4 18.6" fill="none" stroke="#f8edce" stroke-width="2.4" stroke-linecap="round" stroke-linejoin="round"/><path d="M32.0 26.0 C35.5 31.0 37.5 33.5 37.5 36.5 C37.5 40.5 34.5 42.5 32.0 42.5 C26.5 42.5 26.5 36.5 26.5 34.5z" fill="#f2dfa6"/><path d="M32.0 31.5 C34.5 34.5 34.8 36.5 34.8 38.5 C34.0 40.5 29.2 40.5 29.2 37.0z" fill="#f8edce"/></g>
</svg>
