<svg xmlns="http://www.w3.org/2000/svg" width="64" height="64" viewBox="0 0 64 64">
  <rect x="1.5" y="1.5" width="61.0" height="61.0" rx="11.5" fill="#7a6130"/><rect x="2.5" y="2.5" width="59.0" height="58.0" rx="10.5" fill="#c8a75a"/><rect x="3.5" y="3.5" width="57.0" height="55.0" rx="9.5" fill="#e8cf8a"/><rect x="4.5" y="5.5" width="55.0" height="54.0" rx="9.0" fill="#c8a75a"/><rect x="5.0" y="5.0" width="54.0" height="54.0" rx="8.0" fill="#15161e"/><rect x="7.5" y="7.5" width="49.0" height="49.0" rx="6.0" fill="none" stroke="#7a6130" stroke-width="1.1" stroke-linejoin="round"/><circle cx="32.0" cy="32.0" r="19.5" fill="#23242f"/><g transform="translate(32.0 32.0) rotate(45.0)"><polygon points="-5.0,10.9 -5.0,-17.0 0.0,-26.0 5.0,-17.0 5.0,10.9" fill="#c3cbdb" stroke="#0d0f16" stroke-width="1.5" stroke-linejoin="round"/><polygon points="-3.2,9.1 -3.2,-15.5 -0.9,-20.5 -0.9,9.1" fill="#dee2eb"/><rect x="-13.0" y="10.9" width="26.0" height="5.2" rx="2.6" fill="#d0a95c" stroke="#0d0f16" stroke-width="1.3" stroke-linejoin="round"/><rect x="-1.9" y="16.1" width="3.8" height="7.1" rx="1.6" fill="#78643c" stroke="#0d0f16" stroke-width="1.2" stroke-linejoin="round"/><circle cx="0.0" cy="23.2" r="3.1" fill="#d0a95c" stroke="#0d0f16" stroke-width="1.3" stroke-linejoin="round"/></g>
</svg>
