<svg xmlns="http://www.w3.org/2000/svg" width="64" height="64" viewBox="0 0 64 64">
  <rect x="1.6" y="1.6" width="60.8" height="60.8" rx="12.0" fill="#4b3a16"/><rect x="2.4" y="2.4" width="59.2" height="59.2" rx="11.4" fill="#d6b76e"/><rect x="2.4" y="3.5" width="59.2" height="58.1" rx="11.4" fill="#c9a24a"/><rect x="5.2" y="5.2" width="53.6" height="53.6" rx="8.8" fill="#141118"/><rect x="8.4" y="8.4" width="47.2" height="47.2" rx="6.4" fill="none" stroke="#6b5730" stroke-width="1.2" stroke-linejoin="round"/><circle cx="32.0" cy="32.0" r="19.5" fill="#272120"/><g transform="translate(32 32) scale(0.92) translate(-32 -32)"><g transform="translate(32.0 32.0) rotate(45.0)"><polygon points="-4.3,11.3 -4.3,-19.3 0.0,-27.0 4.3,-19.3 4.3,11.3" fill="#c3cbdb"/><polygon points="-2.8,9.5 -2.8,-18.0 -0.8,-22.3 -0.8,9.5" fill="#dee2eb"/><rect x="-13.3" y="11.3" width="26.7" height="3.8" rx="1.9" fill="#d0a95c"/><rect x="-1.6" y="15.1" width="3.3" height="9.5" rx="1.6" fill="#78643c" stroke="#968667" stroke-width="1.0" stroke-linejoin="round"/><circle cx="0.0" cy="24.6" r="2.7" fill="#d0a95c"/></g></g>
</svg>
