<svg xmlns="http://www.w3.org/2000/svg" width="64" height="64" viewBox="0 0 64 64">
  <rect x="1.6" y="1.6" width="60.8" height="60.8" rx="12.0" fill="#4b3a16"/><rect x="2.4" y="2.4" width="59.2" height="59.2" rx="11.4" fill="#d6b76e"/><rect x="2.4" y="3.5" width="59.2" height="58.1" rx="11.4" fill="#c9a24a"/><rect x="5.2" y="5.2" width="53.6" height="53.6" rx="8.8" fill="#141118"/><rect x="8.4" y="8.4" width="47.2" height="47.2" rx="6.4" fill="none" stroke="#6b5730" stroke-width="1.2" stroke-linejoin="round"/><circle cx="32.0" cy="32.0" r="19.5" fill="#272120"/><g transform="translate(32 32) scale(0.92) translate(-32 -32)"><g transform="translate(38.0 22.0) rotate(45.0)"><rect x="-3.4" y="6.0" width="6.8" height="26.0" rx="2.8" fill="#7a5a3a" stroke="#977e65" stroke-width="1.0" stroke-linejoin="round"/><rect x="-13.0" y="-9.0" width="26.0" height="18.0" rx="3.5" fill="#d0a95c"/><rect x="-10.0" y="-6.4" width="20.0" height="5.4" rx="2.2" fill="#e5d0a5"/></g><polygon points="10.0,48.0 16.5,43.0 18.5,51.0" fill="#d0a95c"/><polygon points="21.0,54.0 26.0,49.0 28.5,55.0" fill="#e5d0a5"/><polygon points="9.0,36.0 15.5,37.5 11.5,42.0" fill="#d0a95c"/></g>
</svg>
