<svg xmlns="http://www.w3.org/2000/svg" width="64" height="64" viewBox="0 0 64 64">
  <rect x="1.5" y="1.5" width="61.0" height="61.0" rx="11.5" fill="#7a6130"/><rect x="2.5" y="2.5" width="59.0" height="58.0" rx="10.5" fill="#c8a75a"/><rect x="3.5" y="3.5" width="57.0" height="55.0" rx="9.5" fill="#e8cf8a"/><rect x="4.5" y="5.5" width="55.0" height="54.0" rx="9.0" fill="#c8a75a"/><rect x="5.0" y="5.0" width="54.0" height="54.0" rx="8.0" fill="#15161e"/><rect x="7.5" y="7.5" width="49.0" height="49.0" rx="6.0" fill="none" stroke="#7a6130" stroke-width="1.1" stroke-linejoin="round"/><circle cx="32.0" cy="32.0" r="19.5" fill="#212b3d"/><circle cx="32.0" cy="32.0" r="18.0" fill="none" stroke="#5473a0" stroke-width="1.1" stroke-linejoin="round"/><circle cx="17.3" cy="21.7" r="1.3" fill="#5473a0"/><circle cx="46.7" cy="21.7" r="1.3" fill="#5473a0"/><circle cx="46.7" cy="42.3" r="1.3" fill="#5473a0"/><circle cx="17.3" cy="42.3" r="1.3" fill="#5473a0"/><polygon points="32.0,12.5 48.9,22.2 48.9,41.8 32.0,51.5 15.1,41.8 15.1,22.2" fill="#6f9bd8" stroke="#0d0f16" stroke-width="1.4" stroke-linejoin="round"/><polygon points="32.0,18.5 43.7,25.2 43.7,38.8 32.0,45.5 20.3,38.8 20.3,25.2" fill="#435c81" stroke="#0d0f16" stroke-width="1.2" stroke-linejoin="round"/><polygon points="32.0,24.5 38.5,28.2 38.5,35.8 32.0,39.5 25.5,35.8 25.5,28.2" fill="#b0c8ea" stroke="#0d0f16" stroke-width="1.1" stroke-linejoin="round"/>
</svg>
