<svg xmlns="http://www.w3.org/2000/svg" width="64" height="64" viewBox="0 0 64 64">
  <rect x="1.5" y="1.5" width="61.0" height="61.0" rx="11.5" fill="#7a6130"/><rect x="2.5" y="2.5" width="59.0" height="58.0" rx="10.5" fill="#c8a75a"/><rect x="3.5" y="3.5" width="57.0" height="55.0" rx="9.5" fill="#e8cf8a"/><rect x="4.5" y="5.5" width="55.0" height="54.0" rx="9.0" fill="#c8a75a"/><rect x="5.0" y="5.0" width="54.0" height="54.0" rx="8.0" fill="#15161e"/><rect x="7.5" y="7.5" width="49.0" height="49.0" rx="6.0" fill="none" stroke="#7a6130" stroke-width="1.1" stroke-linejoin="round"/><circle cx="32.0" cy="32.0" r="19.5" fill="#372920"/><circle cx="32.0" cy="32.0" r="18.0" fill="none" stroke="#9e6b3d" stroke-width="1.1" stroke-linejoin="round"/><circle cx="17.3" cy="21.7" r="1.3" fill="#9e6b3d"/><circle cx="46.7" cy="21.7" r="1.3" fill="#9e6b3d"/><circle cx="46.7" cy="42.3" r="1.3" fill="#9e6b3d"/><circle cx="17.3" cy="42.3" r="1.3" fill="#9e6b3d"/><ellipse cx="32" cy="45" rx="17.5" ry="7.5" fill="none" stroke="#0d0f16" stroke-width="7.4"/><ellipse cx="32" cy="45" rx="17.5" ry="7.5" fill="none" stroke="#d98f4a" stroke-width="4.6"/><polygon points="32.0,11.0 35.4,21.6 46.0,25.0 35.4,28.4 32.0,39.0 28.6,28.4 18.0,25.0 28.6,21.6" fill="#d98f4a" stroke="#0d0f16" stroke-width="1.4" stroke-linejoin="round"/><polygon points="14.0,30.5 15.1,33.9 18.5,35.0 15.1,36.1 14.0,39.5 12.9,36.1 9.5,35.0 12.9,33.9" fill="#d98f4a" stroke="#0d0f16" stroke-width="1.0" stroke-linejoin="round"/><polygon points="50.0,30.5 51.1,33.9 54.5,35.0 51.1,36.1 50.0,39.5 48.9,36.1 45.5,35.0 48.9,33.9" fill="#d98f4a" stroke="#0d0f16" stroke-width="1.0" stroke-linejoin="round"/>
</svg>
