<svg xmlns="http://www.w3.org/2000/svg" width="64" height="64" viewBox="0 0 64 64">
  <rect x="1.5" y="1.5" width="61.0" height="61.0" rx="11.5" fill="#7a6130"/><rect x="2.5" y="2.5" width="59.0" height="58.0" rx="10.5" fill="#c8a75a"/><rect x="3.5" y="3.5" width="57.0" height="55.0" rx="9.5" fill="#e8cf8a"/><rect x="4.5" y="5.5" width="55.0" height="54.0" rx="9.0" fill="#c8a75a"/><rect x="5.0" y="5.0" width="54.0" height="54.0" rx="8.0" fill="#15161e"/><rect x="7.5" y="7.5" width="49.0" height="49.0" rx="6.0" fill="none" stroke="#7a6130" stroke-width="1.1" stroke-linejoin="round"/><circle cx="32.0" cy="32.0" r="19.5" fill="#38201e"/><circle cx="32.0" cy="32.0" r="18.0" fill="none" stroke="#a34d33" stroke-width="1.1" stroke-linejoin="round"/><circle cx="17.3" cy="21.7" r="1.3" fill="#a34d33"/><circle cx="46.7" cy="21.7" r="1.3" fill="#a34d33"/><circle cx="46.7" cy="42.3" r="1.3" fill="#a34d33"/><circle cx="17.3" cy="42.3" r="1.3" fill="#a34d33"/><polygon points="32.0,11.0 35.1,24.6 46.8,17.2 39.4,28.9 53.0,32.0 39.4,35.1 46.8,46.8 35.1,39.4 32.0,53.0 28.9,39.4 17.2,46.8 24.6,35.1 11.0,32.0 24.6,28.9 17.2,17.2 28.9,24.6" fill="#e0643c" stroke="#0d0f16" stroke-width="1.4" stroke-linejoin="round"/><circle cx="32.0" cy="32.0" r="7.0" fill="#eeaa94" stroke="#0d0f16" stroke-width="1.2" stroke-linejoin="round"/>
</svg>
