<svg xmlns="http://www.w3.org/2000/svg" width="64" height="64" viewBox="0 0 64 64">
  <rect x="1.6" y="1.6" width="60.8" height="60.8" rx="12.0" fill="#4b3a16"/><rect x="2.4" y="2.4" width="59.2" height="59.2" rx="11.4" fill="#d6b76e"/><rect x="2.4" y="3.5" width="59.2" height="58.1" rx="11.4" fill="#c9a24a"/><rect x="5.2" y="5.2" width="53.6" height="53.6" rx="8.8" fill="#141118"/><rect x="8.4" y="8.4" width="47.2" height="47.2" rx="6.4" fill="none" stroke="#6b5730" stroke-width="1.2" stroke-linejoin="round"/><circle cx="32.0" cy="32.0" r="19.5" fill="#272120"/><g transform="translate(32 32) scale(0.92) translate(-32 -32)"><path d="M32.0 35.0 L32.0 48.0" fill="none" stroke="#7fc4dd" stroke-width="3.0" stroke-linecap="round" stroke-linejoin="round"/><path d="M32.0 43.0 L35.4 47.3" fill="none" stroke="#7fc4dd" stroke-width="2.2" stroke-linecap="round" stroke-linejoin="round"/><path d="M32.0 43.0 L28.6 47.3" fill="none" stroke="#7fc4dd" stroke-width="2.2" stroke-linecap="round" stroke-linejoin="round"/><path d="M29.4 33.5 L18.1 40.0" fill="none" stroke="#7fc4dd" stroke-width="3.0" stroke-linecap="round" stroke-linejoin="round"/><path d="M22.5 37.5 L20.4 42.6" fill="none" stroke="#7fc4dd" stroke-width="2.2" stroke-linecap="round" stroke-linejoin="round"/><path d="M22.5 37.5 L17.0 36.7" fill="none" stroke="#7fc4dd" stroke-width="2.2" stroke-linecap="round" stroke-linejoin="round"/><path d="M29.4 30.5 L18.1 24.0" fill="none" stroke="#7fc4dd" stroke-width="3.0" stroke-linecap="round" stroke-linejoin="round"/><path d="M22.5 26.5 L17.0 27.3" fill="none" stroke="#7fc4dd" stroke-width="2.2" stroke-linecap="round" stroke-linejoin="round"/><path d="M22.5 26.5 L20.4 21.4" fill="none" stroke="#7fc4dd" stroke-width="2.2" stroke-linecap="round" stroke-linejoin="round"/><path d="M32.0 29.0 L32.0 16.0" fill="none" stroke="#7fc4dd" stroke-width="3.0" stroke-linecap="round" stroke-linejoin="round"/><path d="M32.0 21.0 L28.6 16.7" fill="none" stroke="#7fc4dd" stroke-width="2.2" stroke-linecap="round" stroke-linejoin="round"/><path d="M32.0 21.0 L35.4 16.7" fill="none" stroke="#7fc4dd" stroke-width="2.2" stroke-linecap="round" stroke-linejoin="round"/><path d="M34.6 30.5 L45.9 24.0" fill="none" stroke="#7fc4dd" stroke-width="3.0" stroke-linecap="round" stroke-linejoin="round"/><path d="M41.5 26.5 L43.6 21.4" fill="none" stroke="#7fc4dd" stroke-width="2.2" stroke-linecap="round" stroke-linejoin="round"/><path d="M41.5 26.5 L47.0 27.3" fill="none" stroke="#7fc4dd" stroke-width="2.2" stroke-linecap="round" stroke-linejoin="round"/><path d="M34.6 33.5 L45.9 40.0" fill="none" stroke="#7fc4dd" stroke-width="3.0" stroke-linecap="round" stroke-linejoin="round"/><path d="M41.5 37.5 L47.0 36.7" fill="none" stroke="#7fc4dd" stroke-width="2.2" stroke-linecap="round" stroke-linejoin="round"/><path d="M41.5 37.5 L43.6 42.6" fill="none" stroke="#7fc4dd" stroke-width="2.2" stroke-linecap="round" stroke-linejoin="round"/><circle cx="32.0" cy="32.0" r="3.4" fill="#b9dfec"/></g>
</svg>
